<svg xmlns="http://www.w3.org/2000/svg"><style>use{fill:#66686a}.logo-nav{fill:#ffffff}svg:hover .logo-nav{fill:#66686a}</style><defs><clipPath id="a"><path d="M0 275.953h379.31V0H0v275.953z"/></clipPath></defs><defs><g id="logo"><path d="M167.283 48.23h-3.475V14.057h20.61l-.002 3.09h-17.133v11.825h15.927v3.088h-15.927v16.17z"/><g clip-path="url(#a)" transform="matrix(1.25 0 0 -1.25 -36.22 234.69)"><path d="M206.583 162.816c0 1.595-.257 3.11-.772 4.55-.514 1.438-1.26 2.705-2.24 3.796-.977 1.092-2.167 1.96-3.57 2.602-1.403.643-2.98.965-4.73.965-1.75 0-3.327-.322-4.73-.965-1.403-.643-2.593-1.51-3.57-2.602-.98-1.092-1.726-2.36-2.24-3.798-.516-1.438-.773-2.954-.773-4.55 0-1.592.257-3.108.772-4.546.514-1.442 1.26-2.7 2.24-3.78.977-1.08 2.167-1.94 3.57-2.582 1.403-.642 2.98-.963 4.73-.963 1.75 0 3.327.32 4.73.964 1.403.64 2.593 1.5 3.57 2.58.98 1.08 1.726 2.338 2.24 3.78.516 1.437.773 2.953.773 4.546m2.934.02c0-2.084-.36-4.004-1.08-5.753-.72-1.75-1.718-3.262-2.993-4.536-1.274-1.275-2.78-2.272-4.517-2.992-1.738-.722-3.623-1.082-5.657-1.082-2.033 0-3.918.36-5.657 1.082-1.737.72-3.242 1.717-4.517 2.992-1.274 1.274-2.272 2.786-2.992 4.536-.72 1.75-1.08 3.67-1.08 5.754 0 2.085.36 4.002 1.08 5.752.72 1.75 1.718 3.262 2.992 4.537 1.275 1.272 2.78 2.27 4.517 2.992 1.74.72 3.624 1.08 5.657 1.08 2.034 0 3.92-.36 5.657-1.08 1.737-.723 3.243-1.72 4.517-2.993 1.275-1.275 2.272-2.787 2.992-4.538.72-1.75 1.08-3.668 1.08-5.753M218.09 164.342h4.825c2.24 0 3.964.405 5.175 1.218 1.21.81 1.814 2.027 1.814 3.648 0 .9-.168 1.66-.5 2.277-.337.62-.8 1.12-1.392 1.507-.592.386-1.313.67-2.162.848-.85.18-1.79.272-2.82.272h-4.94v-9.77zm0-15.173h-2.78v27.336h8.03c1.338 0 2.58-.13 3.727-.386 1.144-.26 2.136-.677 2.972-1.256.836-.58 1.486-1.33 1.95-2.26.462-.924.694-2.057.694-3.396 0-1.005-.18-1.917-.54-2.74-.36-.825-.85-1.54-1.468-2.145-.617-.605-1.35-1.088-2.2-1.448-.85-.36-1.777-.592-2.78-.694l7.992-13.01h-3.397l-7.567 12.78h-4.634v-12.78zM247.357 152.99h.077l6.835 23.515h3.32l6.834-23.515h.077l6.68 23.515h2.935l-8.07-27.337H262.8l-6.87 23.476h-.078l-6.873-23.476h-3.244l-8.07 27.337h2.934l6.757-23.515zM280.87 158.9h12.048l-6.023 14.516-6.024-14.517zm-4.015-9.73h-3.05l11.815 27.336h2.704l11.737-27.337h-3.088l-3.01 7.18h-14.134l-2.973-7.18zM309.173 164.342H314c2.24 0 3.963.405 5.174 1.218 1.21.81 1.814 2.027 1.814 3.648 0 .9-.168 1.66-.5 2.277-.337.62-.8 1.12-1.392 1.507-.592.386-1.313.67-2.162.848-.85.18-1.79.272-2.82.272h-4.94v-9.77zm0-15.173h-2.78v27.336h8.032c1.337 0 2.58-.13 3.726-.386 1.145-.26 2.137-.677 2.973-1.256.837-.58 1.487-1.33 1.95-2.26.463-.924.695-2.057.695-3.396 0-1.005-.18-1.917-.54-2.74-.36-.825-.85-1.54-1.468-2.145-.617-.605-1.35-1.088-2.2-1.448-.85-.36-1.777-.592-2.78-.694l7.992-13.01h-3.397l-7.568 12.78h-4.634v-12.78zM333.845 151.64h5.522c2.06 0 3.855.32 5.386.964 1.53.644 2.8 1.487 3.803 2.53 1.004 1.043 1.757 2.233 2.26 3.57.5 1.34.752 2.717.752 4.133 0 1.415-.25 2.793-.753 4.13-.502 1.34-1.255 2.53-2.26 3.57-1.003 1.044-2.27 1.887-3.802 2.53-1.53.644-3.327.967-5.386.967h-5.522V151.64zm-2.78 24.866h9.074c1.698 0 3.403-.285 5.115-.85 1.712-.567 3.256-1.424 4.633-2.57 1.377-1.145 2.49-2.572 3.34-4.284.85-1.712 1.274-3.7 1.274-5.965 0-2.293-.425-4.287-1.274-5.986-.85-1.698-1.963-3.12-3.34-4.266-1.377-1.144-2.92-2.002-4.633-2.567-1.712-.566-3.417-.85-5.116-.85h-9.075v27.338zM162.8 105.307h12.74v-2.472h-15.52v27.337h2.78v-24.865zM186.35 102.835h-2.78v27.337h2.78v-27.337zM206.235 102.835h-2.78V127.7h-9.15v2.472h21.08V127.7h-9.15v-24.865zM226.12 105.307h14.634v-2.472H223.34v27.337h16.95v-2.47h-14.17v-9.384h13.244v-2.47H226.12v-10.54zM252.838 118.01h4.826c2.24 0 3.964.405 5.175 1.216 1.208.81 1.813 2.027 1.813 3.648 0 .9-.168 1.66-.5 2.28-.337.616-.8 1.12-1.392 1.504-.59.386-1.312.67-2.16.85-.85.18-1.79.27-2.82.27h-4.942v-9.768zm0-15.175h-2.78v27.337h8.032c1.337 0 2.58-.128 3.726-.386 1.144-.257 2.136-.675 2.972-1.254.837-.58 1.487-1.333 1.95-2.26.463-.926.695-2.06.695-3.398 0-1.003-.18-1.917-.54-2.74-.36-.825-.85-1.54-1.468-2.145-.617-.606-1.35-1.09-2.2-1.45-.85-.36-1.777-.59-2.78-.692l7.992-13.013h-3.397l-7.568 12.78h-4.634v-12.78zM280.87 112.565h12.047l-6.023 14.52-6.024-14.52zm-4.016-9.73h-3.05l11.815 27.337h2.703l11.737-27.337h-3.09l-3.01 7.18h-14.133l-2.973-7.18zM310.716 118.01h4.826c2.24 0 3.964.405 5.175 1.216 1.21.81 1.814 2.027 1.814 3.648 0 .9-.167 1.66-.5 2.28-.336.616-.8 1.12-1.39 1.504-.593.386-1.314.67-2.163.85-.85.18-1.79.27-2.82.27h-4.94v-9.768zm0-15.175h-2.78v27.337h8.032c1.337 0 2.58-.128 3.726-.386 1.144-.257 2.136-.675 2.972-1.254.837-.58 1.487-1.333 1.95-2.26.463-.926.695-2.06.695-3.398 0-1.003-.18-1.917-.54-2.74-.36-.825-.848-1.54-1.467-2.145-.617-.606-1.35-1.09-2.2-1.45-.85-.36-1.777-.59-2.78-.692l7.992-13.013h-3.397l-7.568 12.78h-4.634v-12.78zM344.077 102.835h-2.78v11.776l-10.232 15.562h3.474l8.224-13.244 8.3 13.244h3.245l-10.233-15.56v-11.777zM49.975 86.516l-16.685-.95-4.318 98.044 88.494 3.947.88-20.18-71.81-2.996 3.44-77.864z"/><path d="M126.257 108.66v18.484H63.5v18.075h62.757v42.532h16.706v-101.4H64.33v22.31h61.927z"/></g></g></defs></svg>